<mxfile host="app.diagrams.net" agent="Mozilla/5.0 (Windows NT 10.0; Win64; x64) AppleWebKit/537.36 (KHTML, like Gecko) Chrome/135.0.0.0 Safari/537.36" version="26.2.13">
  <diagram name="Page-1" id="e3a06f82-3646-2815-327d-82caf3d4e204">
    <mxGraphModel dx="2223" dy="1001" grid="1" gridSize="10" guides="1" tooltips="0" connect="1" arrows="1" fold="1" page="1" pageScale="1.5" pageWidth="1169" pageHeight="826" background="none" math="0" shadow="0">
      <root>
        <mxCell id="0" style=";html=1;" />
        <mxCell id="1" style=";html=1;" parent="0" />
        <mxCell id="hWFFJ-Ory_eg45FTC5Lz-3" style="edgeStyle=orthogonalEdgeStyle;rounded=0;orthogonalLoop=1;jettySize=auto;html=1;endArrow=none;startFill=0;strokeWidth=5;strokeColor=light-dark(#7af5ed, #ededed);" edge="1" parent="1">
          <mxGeometry relative="1" as="geometry">
            <mxPoint x="260" y="810" as="sourcePoint" />
            <mxPoint x="260" y="600" as="targetPoint" />
          </mxGeometry>
        </mxCell>
        <mxCell id="hWFFJ-Ory_eg45FTC5Lz-4" style="edgeStyle=orthogonalEdgeStyle;rounded=0;orthogonalLoop=1;jettySize=auto;html=1;entryX=0.5;entryY=1;entryDx=0;entryDy=0;endArrow=none;startFill=0;strokeWidth=5;strokeColor=light-dark(#7af5ed, #ededed);" edge="1" parent="1">
          <mxGeometry relative="1" as="geometry">
            <mxPoint x="550" y="810" as="sourcePoint" />
            <mxPoint x="550" y="610" as="targetPoint" />
          </mxGeometry>
        </mxCell>
        <mxCell id="tVeonZrdStqnHoXR2ECa-25" value="" style="shape=mxgraph.cisco.storage.cloud;sketch=0;html=1;pointerEvents=1;dashed=0;fillColor=#dae8fc;strokeColor=#6c8ebf;strokeWidth=2;verticalLabelPosition=bottom;verticalAlign=top;align=center;outlineConnect=0;movable=1;resizable=1;rotatable=1;deletable=1;editable=1;locked=0;connectable=1;" parent="1" vertex="1">
          <mxGeometry x="35" y="340" width="760" height="170" as="geometry" />
        </mxCell>
        <mxCell id="6a7d8f32e03d9370-62" value="Kagaya" style="text;strokeColor=none;fillColor=none;html=1;fontSize=30;fontStyle=1;verticalAlign=middle;align=center;" parent="1" vertex="1">
          <mxGeometry x="474.5" y="20" width="861" height="40" as="geometry" />
        </mxCell>
        <mxCell id="tVeonZrdStqnHoXR2ECa-13" value="ESXi-1" style="image;html=1;image=img/lib/clip_art/computers/Server_128x128.png;fontSize=16;movable=1;resizable=1;rotatable=1;deletable=1;editable=1;locked=0;connectable=1;" parent="1" vertex="1">
          <mxGeometry x="149" y="480" width="231" height="140" as="geometry" />
        </mxCell>
        <mxCell id="tVeonZrdStqnHoXR2ECa-14" value="&lt;span style=&quot;font-size: 14px; background-color: rgb(236, 236, 236);&quot;&gt;Web Server&lt;/span&gt;&lt;div style=&quot;font-size: 14px; background-color: rgb(236, 236, 236);&quot;&gt;(Front End)&lt;/div&gt;" style="image;html=1;image=img/lib/clip_art/computers/Virtual_Machine_128x128.png;movable=1;resizable=1;rotatable=1;deletable=1;editable=1;locked=0;connectable=1;" parent="1" vertex="1">
          <mxGeometry x="75" y="340" width="99" height="113" as="geometry" />
        </mxCell>
        <mxCell id="tVeonZrdStqnHoXR2ECa-17" value="ESXi-2" style="image;html=1;image=img/lib/clip_art/computers/Server_128x128.png;fontSize=16;movable=1;resizable=1;rotatable=1;deletable=1;editable=1;locked=0;connectable=1;" parent="1" vertex="1">
          <mxGeometry x="429" y="481" width="231" height="139" as="geometry" />
        </mxCell>
        <mxCell id="hWFFJ-Ory_eg45FTC5Lz-1" style="rounded=0;orthogonalLoop=1;jettySize=auto;html=1;endArrow=none;startFill=0;strokeWidth=4;strokeColor=light-dark(#5ff4f7, #ededed);" edge="1" parent="1" source="tVeonZrdStqnHoXR2ECa-22" target="tVeonZrdStqnHoXR2ECa-24">
          <mxGeometry relative="1" as="geometry" />
        </mxCell>
        <mxCell id="tVeonZrdStqnHoXR2ECa-22" value="San Switch" style="image;html=1;image=img/lib/clip_art/networking/Switch_128x128.png;movable=1;resizable=1;rotatable=1;deletable=1;editable=1;locked=0;connectable=1;fontSize=17;" parent="1" vertex="1">
          <mxGeometry x="161.5" y="781" width="206" height="149" as="geometry" />
        </mxCell>
        <mxCell id="hWFFJ-Ory_eg45FTC5Lz-2" style="rounded=0;orthogonalLoop=1;jettySize=auto;html=1;endArrow=none;startFill=0;strokeWidth=4;strokeColor=light-dark(#5ff4f7, #ededed);" edge="1" parent="1" source="tVeonZrdStqnHoXR2ECa-23" target="tVeonZrdStqnHoXR2ECa-24">
          <mxGeometry relative="1" as="geometry" />
        </mxCell>
        <mxCell id="tVeonZrdStqnHoXR2ECa-23" value="San Switch" style="image;html=1;image=img/lib/clip_art/networking/Switch_128x128.png;movable=1;resizable=1;rotatable=1;deletable=1;editable=1;locked=0;connectable=1;fontSize=17;" parent="1" vertex="1">
          <mxGeometry x="440.25" y="778.5" width="208.5" height="154" as="geometry" />
        </mxCell>
        <mxCell id="tVeonZrdStqnHoXR2ECa-24" value="Storage" style="shape=mxgraph.cisco.storage.fc_storage;sketch=0;html=1;pointerEvents=1;dashed=0;fillColor=#036897;strokeColor=#ffffff;strokeWidth=2;verticalLabelPosition=bottom;verticalAlign=top;align=center;outlineConnect=0;fontSize=16;movable=1;resizable=1;rotatable=1;deletable=1;editable=1;locked=0;connectable=1;" parent="1" vertex="1">
          <mxGeometry x="267.25" y="1030" width="275.5" height="140" as="geometry" />
        </mxCell>
        <mxCell id="tVeonZrdStqnHoXR2ECa-26" value="&lt;span style=&quot;font-size: 14px; background-color: rgb(236, 236, 236);&quot;&gt;DataBase&lt;/span&gt;" style="image;html=1;image=img/lib/clip_art/computers/Virtual_Machine_128x128.png;movable=1;resizable=1;rotatable=1;deletable=1;editable=1;locked=0;connectable=1;" parent="1" vertex="1">
          <mxGeometry x="185" y="340" width="99" height="113" as="geometry" />
        </mxCell>
        <mxCell id="tVeonZrdStqnHoXR2ECa-27" value="&lt;span style=&quot;font-size: 14px; background-color: rgb(236, 236, 236);&quot;&gt;Web Server&lt;/span&gt;&lt;div style=&quot;font-size: 14px; background-color: rgb(236, 236, 236);&quot;&gt;(Back End)&lt;/div&gt;" style="image;html=1;image=img/lib/clip_art/computers/Virtual_Machine_128x128.png;movable=1;resizable=1;rotatable=1;deletable=1;editable=1;locked=0;connectable=1;" parent="1" vertex="1">
          <mxGeometry x="298" y="340" width="99" height="113" as="geometry" />
        </mxCell>
        <mxCell id="tVeonZrdStqnHoXR2ECa-28" value="&lt;span style=&quot;font-size: 14px; background-color: rgb(236, 236, 236);&quot;&gt;Mgmt&lt;/span&gt;" style="image;html=1;image=img/lib/clip_art/computers/Virtual_Machine_128x128.png;movable=1;resizable=1;rotatable=1;deletable=1;editable=1;locked=0;connectable=1;" parent="1" vertex="1">
          <mxGeometry x="655" y="340" width="99" height="113" as="geometry" />
        </mxCell>
        <mxCell id="hWFFJ-Ory_eg45FTC5Lz-6" value="&lt;font style=&quot;font-size: 16px; color: rgb(0, 0, 0);&quot;&gt;Server Lan&lt;/font&gt;" style="html=1;outlineConnect=0;fillColor=#CCCCCC;strokeColor=#6881B3;gradientColor=none;gradientDirection=north;strokeWidth=2;shape=mxgraph.networks.bus;gradientColor=none;gradientDirection=north;fontColor=#ffffff;perimeter=backbonePerimeter;backboneSize=20;" vertex="1" parent="1">
          <mxGeometry x="340" y="700" width="130" height="20" as="geometry" />
        </mxCell>
        <mxCell id="hWFFJ-Ory_eg45FTC5Lz-9" value="" style="edgeStyle=none;orthogonalLoop=1;jettySize=auto;html=1;rounded=0;endArrow=none;startFill=0;strokeWidth=4;" edge="1" parent="1">
          <mxGeometry width="80" relative="1" as="geometry">
            <mxPoint x="450" y="560" as="sourcePoint" />
            <mxPoint x="450" y="700" as="targetPoint" />
            <Array as="points" />
          </mxGeometry>
        </mxCell>
        <mxCell id="hWFFJ-Ory_eg45FTC5Lz-10" value="" style="edgeStyle=none;orthogonalLoop=1;jettySize=auto;html=1;rounded=0;endArrow=none;startFill=0;strokeWidth=4;" edge="1" parent="1">
          <mxGeometry width="80" relative="1" as="geometry">
            <mxPoint x="360" y="560" as="sourcePoint" />
            <mxPoint x="360" y="700" as="targetPoint" />
            <Array as="points" />
          </mxGeometry>
        </mxCell>
        <mxCell id="hWFFJ-Ory_eg45FTC5Lz-11" value="&lt;font style=&quot;font-size: 16px; color: rgb(0, 0, 0);&quot;&gt;Backup Lan&lt;/font&gt;" style="html=1;outlineConnect=0;fillColor=#CCCCCC;strokeColor=#6881B3;gradientColor=none;gradientDirection=north;strokeWidth=2;shape=mxgraph.networks.bus;gradientColor=none;gradientDirection=north;fontColor=#ffffff;perimeter=backbonePerimeter;backboneSize=20;" vertex="1" parent="1">
          <mxGeometry x="280" y="740" width="240" height="20" as="geometry" />
        </mxCell>
        <mxCell id="hWFFJ-Ory_eg45FTC5Lz-12" value="" style="edgeStyle=none;orthogonalLoop=1;jettySize=auto;html=1;rounded=0;endArrow=none;startFill=0;strokeColor=light-dark(#fc0303, #ededed);strokeWidth=5;" edge="1" parent="1">
          <mxGeometry width="80" relative="1" as="geometry">
            <mxPoint x="500.21000000000004" y="600" as="sourcePoint" />
            <mxPoint x="500" y="740.14" as="targetPoint" />
            <Array as="points" />
          </mxGeometry>
        </mxCell>
        <mxCell id="hWFFJ-Ory_eg45FTC5Lz-13" value="" style="edgeStyle=none;orthogonalLoop=1;jettySize=auto;html=1;rounded=0;endArrow=none;startFill=0;strokeColor=light-dark(#fc0303, #ededed);strokeWidth=5;" edge="1" parent="1">
          <mxGeometry width="80" relative="1" as="geometry">
            <mxPoint x="300.21000000000004" y="600" as="sourcePoint" />
            <mxPoint x="300" y="740.14" as="targetPoint" />
            <Array as="points" />
          </mxGeometry>
        </mxCell>
        <mxCell id="hWFFJ-Ory_eg45FTC5Lz-14" value="" style="shape=mxgraph.networks2.icon;aspect=fixed;fillColor=#EDEDED;strokeColor=#000000;gradientColor=#5B6163;network2IconShadow=1;network2bgFillColor=none;network2Icon=mxgraph.networks2.firewall;network2IconXOffset=0.0001;network2IconYOffset=0.0001;network2IconW=1;network2IconH=0.608;" vertex="1" parent="1">
          <mxGeometry x="760" y="80" width="148.03" height="90" as="geometry" />
        </mxCell>
        <mxCell id="hWFFJ-Ory_eg45FTC5Lz-42" value="&lt;span style=&quot;font-size: 14px; background-color: rgb(236, 236, 236);&quot;&gt;AD&lt;/span&gt;" style="image;html=1;image=img/lib/clip_art/computers/Virtual_Machine_128x128.png;movable=1;resizable=1;rotatable=1;deletable=1;editable=1;locked=0;connectable=1;" vertex="1" parent="1">
          <mxGeometry x="537" y="340" width="99" height="113" as="geometry" />
        </mxCell>
        <mxCell id="hWFFJ-Ory_eg45FTC5Lz-43" value="&lt;span style=&quot;font-size: 14px; background-color: rgb(236, 236, 236);&quot;&gt;DHCP&lt;/span&gt;" style="image;html=1;image=img/lib/clip_art/computers/Virtual_Machine_128x128.png;movable=1;resizable=1;rotatable=1;deletable=1;editable=1;locked=0;connectable=1;" vertex="1" parent="1">
          <mxGeometry x="418" y="340" width="99" height="113" as="geometry" />
        </mxCell>
        <mxCell id="hWFFJ-Ory_eg45FTC5Lz-45" value="" style="group" vertex="1" connectable="0" parent="1">
          <mxGeometry x="1440" y="840" width="110" height="121.57999999999998" as="geometry" />
        </mxCell>
        <mxCell id="hWFFJ-Ory_eg45FTC5Lz-22" value="" style="fillColorStyles=neutralFill;neutralFill=#9DA6A8;shape=mxgraph.networks2.icon;aspect=fixed;fillColor=#EDEDED;strokeColor=#000000;gradientColor=#5B6163;network2IconShadow=1;network2bgFillColor=none;network2Icon=mxgraph.networks2.wireless_hub;network2IconYOffset=-0.1142;network2IconW=1;network2IconH=0.5485;movable=1;resizable=1;rotatable=1;deletable=1;editable=1;locked=0;connectable=1;" vertex="1" parent="hWFFJ-Ory_eg45FTC5Lz-45">
          <mxGeometry x="10" y="21.579999999999984" width="100" height="54.85" as="geometry" />
        </mxCell>
        <mxCell id="hWFFJ-Ory_eg45FTC5Lz-23" value="Guest Wi-Fi" style="text;strokeColor=none;align=center;fillColor=none;html=1;verticalAlign=middle;whiteSpace=wrap;rounded=0;fontSize=17;movable=1;resizable=1;rotatable=1;deletable=1;editable=1;locked=0;connectable=1;" vertex="1" parent="hWFFJ-Ory_eg45FTC5Lz-45">
          <mxGeometry x="10" width="100" height="30" as="geometry" />
        </mxCell>
        <mxCell id="hWFFJ-Ory_eg45FTC5Lz-38" value="" style="shape=mxgraph.cisco.switches.layer_2_remote_switch;sketch=0;html=1;pointerEvents=1;dashed=0;fillColor=#036897;strokeColor=#ffffff;strokeWidth=2;verticalLabelPosition=bottom;verticalAlign=top;align=center;outlineConnect=0;movable=1;resizable=1;rotatable=1;deletable=1;editable=1;locked=0;connectable=1;" vertex="1" parent="hWFFJ-Ory_eg45FTC5Lz-45">
          <mxGeometry y="71.57999999999998" width="101" height="50" as="geometry" />
        </mxCell>
        <mxCell id="hWFFJ-Ory_eg45FTC5Lz-46" value="" style="group" vertex="1" connectable="0" parent="1">
          <mxGeometry x="1440" y="510" width="101" height="119" as="geometry" />
        </mxCell>
        <mxCell id="hWFFJ-Ory_eg45FTC5Lz-19" value="" style="fillColorStyles=neutralFill;neutralFill=#9DA6A8;shape=mxgraph.networks2.icon;aspect=fixed;fillColor=#EDEDED;strokeColor=#000000;gradientColor=#5B6163;network2IconShadow=1;network2bgFillColor=none;network2Icon=mxgraph.networks2.wireless_hub;network2IconYOffset=-0.1142;network2IconW=1;network2IconH=0.5485;movable=1;resizable=1;rotatable=1;deletable=1;editable=1;locked=0;connectable=1;" vertex="1" parent="hWFFJ-Ory_eg45FTC5Lz-46">
          <mxGeometry y="21.579999999999984" width="100" height="54.85" as="geometry" />
        </mxCell>
        <mxCell id="hWFFJ-Ory_eg45FTC5Lz-21" value="Guest Wi-Fi" style="text;strokeColor=none;align=center;fillColor=none;html=1;verticalAlign=middle;whiteSpace=wrap;rounded=0;fontSize=17;movable=1;resizable=1;rotatable=1;deletable=1;editable=1;locked=0;connectable=1;" vertex="1" parent="hWFFJ-Ory_eg45FTC5Lz-46">
          <mxGeometry width="100" height="30" as="geometry" />
        </mxCell>
        <mxCell id="hWFFJ-Ory_eg45FTC5Lz-39" value="" style="shape=mxgraph.cisco.switches.layer_2_remote_switch;sketch=0;html=1;pointerEvents=1;dashed=0;fillColor=#036897;strokeColor=#ffffff;strokeWidth=2;verticalLabelPosition=bottom;verticalAlign=top;align=center;outlineConnect=0;movable=1;resizable=1;rotatable=1;deletable=1;editable=1;locked=0;connectable=1;" vertex="1" parent="hWFFJ-Ory_eg45FTC5Lz-46">
          <mxGeometry y="69" width="101" height="50" as="geometry" />
        </mxCell>
        <mxCell id="hWFFJ-Ory_eg45FTC5Lz-47" value="" style="group" vertex="1" connectable="0" parent="1">
          <mxGeometry x="1440" y="349.99999999999994" width="101" height="121.58000000000004" as="geometry" />
        </mxCell>
        <mxCell id="hWFFJ-Ory_eg45FTC5Lz-28" value="" style="fillColorStyles=neutralFill;neutralFill=#9DA6A8;shape=mxgraph.networks2.icon;aspect=fixed;fillColor=#EDEDED;strokeColor=#000000;gradientColor=#5B6163;network2IconShadow=1;network2bgFillColor=none;network2Icon=mxgraph.networks2.wireless_hub;network2IconYOffset=-0.1142;network2IconW=1;network2IconH=0.5485;movable=1;resizable=1;rotatable=1;deletable=1;editable=1;locked=0;connectable=1;" vertex="1" parent="hWFFJ-Ory_eg45FTC5Lz-47">
          <mxGeometry y="21.58000000000004" width="100" height="54.85" as="geometry" />
        </mxCell>
        <mxCell id="hWFFJ-Ory_eg45FTC5Lz-29" value="Guest Wi-Fi" style="text;strokeColor=none;align=center;fillColor=none;html=1;verticalAlign=middle;whiteSpace=wrap;rounded=0;fontSize=17;movable=1;resizable=1;rotatable=1;deletable=1;editable=1;locked=0;connectable=1;" vertex="1" parent="hWFFJ-Ory_eg45FTC5Lz-47">
          <mxGeometry width="100" height="30" as="geometry" />
        </mxCell>
        <mxCell id="hWFFJ-Ory_eg45FTC5Lz-41" value="" style="shape=mxgraph.cisco.switches.layer_2_remote_switch;sketch=0;html=1;pointerEvents=1;dashed=0;fillColor=#036897;strokeColor=#ffffff;strokeWidth=2;verticalLabelPosition=bottom;verticalAlign=top;align=center;outlineConnect=0;movable=1;resizable=1;rotatable=1;deletable=1;editable=1;locked=0;connectable=1;" vertex="1" parent="hWFFJ-Ory_eg45FTC5Lz-47">
          <mxGeometry y="71.58000000000004" width="101" height="50" as="geometry" />
        </mxCell>
        <mxCell id="hWFFJ-Ory_eg45FTC5Lz-48" value="" style="group" vertex="1" connectable="0" parent="1">
          <mxGeometry x="1440" y="1000" width="101" height="121.58000000000004" as="geometry" />
        </mxCell>
        <mxCell id="hWFFJ-Ory_eg45FTC5Lz-30" value="" style="fillColorStyles=neutralFill;neutralFill=#9DA6A8;shape=mxgraph.networks2.icon;aspect=fixed;fillColor=#EDEDED;strokeColor=#000000;gradientColor=#5B6163;network2IconShadow=1;network2bgFillColor=none;network2Icon=mxgraph.networks2.wireless_hub;network2IconYOffset=-0.1142;network2IconW=1;network2IconH=0.5485;movable=1;resizable=1;rotatable=1;deletable=1;editable=1;locked=0;connectable=1;" vertex="1" parent="hWFFJ-Ory_eg45FTC5Lz-48">
          <mxGeometry y="21.58000000000004" width="100" height="54.85" as="geometry" />
        </mxCell>
        <mxCell id="hWFFJ-Ory_eg45FTC5Lz-31" value="Guest Wi-Fi" style="text;strokeColor=none;align=center;fillColor=none;html=1;verticalAlign=middle;whiteSpace=wrap;rounded=0;fontSize=17;movable=1;resizable=1;rotatable=1;deletable=1;editable=1;locked=0;connectable=1;" vertex="1" parent="hWFFJ-Ory_eg45FTC5Lz-48">
          <mxGeometry width="100" height="30" as="geometry" />
        </mxCell>
        <mxCell id="hWFFJ-Ory_eg45FTC5Lz-40" value="" style="shape=mxgraph.cisco.switches.layer_2_remote_switch;sketch=0;html=1;pointerEvents=1;dashed=0;fillColor=#036897;strokeColor=#ffffff;strokeWidth=2;verticalLabelPosition=bottom;verticalAlign=top;align=center;outlineConnect=0;movable=1;resizable=1;rotatable=1;deletable=1;editable=1;locked=0;connectable=1;" vertex="1" parent="hWFFJ-Ory_eg45FTC5Lz-48">
          <mxGeometry y="71.58000000000004" width="101" height="50" as="geometry" />
        </mxCell>
        <mxCell id="hWFFJ-Ory_eg45FTC5Lz-49" value="" style="group" vertex="1" connectable="0" parent="1">
          <mxGeometry x="1420" y="200" width="150" height="120" as="geometry" />
        </mxCell>
        <mxCell id="hWFFJ-Ory_eg45FTC5Lz-17" value="" style="fillColorStyles=neutralFill;neutralFill=#9DA6A8;shape=mxgraph.networks2.icon;aspect=fixed;fillColor=#EDEDED;strokeColor=#000000;gradientColor=#5B6163;network2IconShadow=1;network2bgFillColor=none;network2Icon=mxgraph.networks2.router;network2IconXOffset=0.0001;network2IconYOffset=-0.1142;network2IconW=1;network2IconH=0.5485;" vertex="1" parent="hWFFJ-Ory_eg45FTC5Lz-49">
          <mxGeometry width="145.85" height="80" as="geometry" />
        </mxCell>
        <mxCell id="hWFFJ-Ory_eg45FTC5Lz-18" value="Unify Controller" style="text;strokeColor=none;align=center;fillColor=none;html=1;verticalAlign=middle;whiteSpace=wrap;rounded=0;fontSize=17;" vertex="1" parent="hWFFJ-Ory_eg45FTC5Lz-49">
          <mxGeometry y="90" width="150" height="30" as="geometry" />
        </mxCell>
        <mxCell id="hWFFJ-Ory_eg45FTC5Lz-50" value="" style="group" vertex="1" connectable="0" parent="1">
          <mxGeometry x="1440" y="670" width="101" height="119" as="geometry" />
        </mxCell>
        <mxCell id="hWFFJ-Ory_eg45FTC5Lz-51" value="" style="fillColorStyles=neutralFill;neutralFill=#9DA6A8;shape=mxgraph.networks2.icon;aspect=fixed;fillColor=#EDEDED;strokeColor=#000000;gradientColor=#5B6163;network2IconShadow=1;network2bgFillColor=none;network2Icon=mxgraph.networks2.wireless_hub;network2IconYOffset=-0.1142;network2IconW=1;network2IconH=0.5485;movable=1;resizable=1;rotatable=1;deletable=1;editable=1;locked=0;connectable=1;" vertex="1" parent="hWFFJ-Ory_eg45FTC5Lz-50">
          <mxGeometry y="21.579999999999984" width="100" height="54.85" as="geometry" />
        </mxCell>
        <mxCell id="hWFFJ-Ory_eg45FTC5Lz-52" value="Guest Wi-Fi" style="text;strokeColor=none;align=center;fillColor=none;html=1;verticalAlign=middle;whiteSpace=wrap;rounded=0;fontSize=17;movable=1;resizable=1;rotatable=1;deletable=1;editable=1;locked=0;connectable=1;" vertex="1" parent="hWFFJ-Ory_eg45FTC5Lz-50">
          <mxGeometry width="100" height="30" as="geometry" />
        </mxCell>
        <mxCell id="hWFFJ-Ory_eg45FTC5Lz-53" value="" style="shape=mxgraph.cisco.switches.layer_2_remote_switch;sketch=0;html=1;pointerEvents=1;dashed=0;fillColor=#036897;strokeColor=#ffffff;strokeWidth=2;verticalLabelPosition=bottom;verticalAlign=top;align=center;outlineConnect=0;movable=1;resizable=1;rotatable=1;deletable=1;editable=1;locked=0;connectable=1;" vertex="1" parent="hWFFJ-Ory_eg45FTC5Lz-50">
          <mxGeometry y="69" width="101" height="50" as="geometry" />
        </mxCell>
        <mxCell id="hWFFJ-Ory_eg45FTC5Lz-54" value="" style="html=1;fillColor=#CCCCCC;strokeColor=#6881B3;gradientColor=none;gradientDirection=north;strokeWidth=2;shape=mxgraph.networks.bus;gradientColor=none;gradientDirection=north;fontColor=#ffffff;perimeter=backbonePerimeter;backboneSize=20;rotation=90;" vertex="1" parent="1">
          <mxGeometry x="780" y="670" width="920" height="20" as="geometry" />
        </mxCell>
        <mxCell id="hWFFJ-Ory_eg45FTC5Lz-57" value="" style="strokeColor=#6881B3;edgeStyle=none;rounded=0;endArrow=none;html=1;strokeWidth=2;entryX=0.418;entryY=0.003;entryDx=0;entryDy=0;entryPerimeter=0;" edge="1" target="hWFFJ-Ory_eg45FTC5Lz-54" parent="1" source="hWFFJ-Ory_eg45FTC5Lz-39">
          <mxGeometry relative="1" as="geometry">
            <mxPoint x="1419.83" y="610" as="sourcePoint" />
            <mxPoint x="1319.9966666666664" y="610" as="targetPoint" />
          </mxGeometry>
        </mxCell>
        <mxCell id="hWFFJ-Ory_eg45FTC5Lz-58" value="" style="strokeColor=#6881B3;edgeStyle=none;rounded=0;endArrow=none;html=1;strokeWidth=2;entryX=0.248;entryY=-0.02;entryDx=0;entryDy=0;entryPerimeter=0;" edge="1" target="hWFFJ-Ory_eg45FTC5Lz-54" parent="1" source="hWFFJ-Ory_eg45FTC5Lz-41">
          <mxGeometry relative="1" as="geometry">
            <mxPoint x="1330" y="440" as="sourcePoint" />
            <mxPoint x="1250.1666666666665" y="440" as="targetPoint" />
          </mxGeometry>
        </mxCell>
        <mxCell id="hWFFJ-Ory_eg45FTC5Lz-59" value="" style="strokeColor=#6881B3;edgeStyle=none;rounded=0;endArrow=none;html=1;strokeWidth=2;exitX=0.952;exitY=-0.009;exitDx=0;exitDy=0;exitPerimeter=0;" edge="1" target="hWFFJ-Ory_eg45FTC5Lz-40" parent="1" source="hWFFJ-Ory_eg45FTC5Lz-54">
          <mxGeometry relative="1" as="geometry">
            <mxPoint x="1250" y="1080" as="sourcePoint" />
            <mxPoint x="1330.379310344828" y="1080" as="targetPoint" />
          </mxGeometry>
        </mxCell>
        <mxCell id="hWFFJ-Ory_eg45FTC5Lz-61" value="" style="strokeColor=#6881B3;edgeStyle=none;rounded=0;endArrow=none;html=1;strokeWidth=2;entryX=0.783;entryY=0;entryDx=0;entryDy=0;entryPerimeter=0;" edge="1" target="hWFFJ-Ory_eg45FTC5Lz-54" parent="1" source="hWFFJ-Ory_eg45FTC5Lz-38">
          <mxGeometry relative="1" as="geometry">
            <mxPoint x="1410" y="920" as="sourcePoint" />
            <mxPoint x="1252" y="951" as="targetPoint" />
          </mxGeometry>
        </mxCell>
        <mxCell id="hWFFJ-Ory_eg45FTC5Lz-62" value="" style="strokeColor=#6881B3;edgeStyle=none;rounded=0;endArrow=none;html=1;strokeWidth=2;" edge="1" parent="1" source="hWFFJ-Ory_eg45FTC5Lz-53">
          <mxGeometry relative="1" as="geometry">
            <mxPoint x="1330" y="760" as="sourcePoint" />
            <mxPoint x="1250" y="764" as="targetPoint" />
          </mxGeometry>
        </mxCell>
        <mxCell id="hWFFJ-Ory_eg45FTC5Lz-63" value="" style="strokeColor=#6881B3;edgeStyle=none;rounded=0;endArrow=none;html=1;strokeWidth=2;exitX=0.006;exitY=0.738;exitDx=0;exitDy=0;exitPerimeter=0;" edge="1" parent="1" source="hWFFJ-Ory_eg45FTC5Lz-17">
          <mxGeometry relative="1" as="geometry">
            <mxPoint x="1330" y="260" as="sourcePoint" />
            <mxPoint x="1250" y="260" as="targetPoint" />
          </mxGeometry>
        </mxCell>
        <mxCell id="hWFFJ-Ory_eg45FTC5Lz-65" value="Guest Wi-Fi Lan" style="text;strokeColor=none;align=center;fillColor=none;html=1;verticalAlign=middle;whiteSpace=wrap;rounded=0;fontSize=17;fontStyle=1" vertex="1" parent="1">
          <mxGeometry x="1150" y="180" width="180" height="30" as="geometry" />
        </mxCell>
        <mxCell id="hWFFJ-Ory_eg45FTC5Lz-66" value="" style="group" vertex="1" connectable="0" parent="1">
          <mxGeometry x="860" y="700" width="130" height="140" as="geometry" />
        </mxCell>
        <mxCell id="hWFFJ-Ory_eg45FTC5Lz-71" style="edgeStyle=none;rounded=0;orthogonalLoop=1;jettySize=auto;html=1;endArrow=none;startFill=0;strokeColor=light-dark(#ff0505, #ededed);strokeWidth=5;" edge="1" parent="hWFFJ-Ory_eg45FTC5Lz-66" source="hWFFJ-Ory_eg45FTC5Lz-35">
          <mxGeometry relative="1" as="geometry">
            <mxPoint x="-342" y="52" as="targetPoint" />
            <mxPoint x="8" y="52" as="sourcePoint" />
          </mxGeometry>
        </mxCell>
        <mxCell id="hWFFJ-Ory_eg45FTC5Lz-35" value="" style="shape=mxgraph.cisco.switches.layer_3_switch;sketch=0;html=1;pointerEvents=1;dashed=0;fillColor=#036897;strokeColor=#ffffff;strokeWidth=2;verticalLabelPosition=bottom;verticalAlign=top;align=center;outlineConnect=0;" vertex="1" parent="hWFFJ-Ory_eg45FTC5Lz-66">
          <mxGeometry x="20" width="104" height="104" as="geometry" />
        </mxCell>
        <mxCell id="hWFFJ-Ory_eg45FTC5Lz-36" value="Aruba" style="text;strokeColor=none;align=center;fillColor=none;html=1;verticalAlign=middle;whiteSpace=wrap;rounded=0;fontSize=17;" vertex="1" parent="hWFFJ-Ory_eg45FTC5Lz-66">
          <mxGeometry y="110" width="130" height="30" as="geometry" />
        </mxCell>
        <mxCell id="hWFFJ-Ory_eg45FTC5Lz-67" value="" style="group" vertex="1" connectable="0" parent="1">
          <mxGeometry x="870" y="520" width="130" height="140" as="geometry" />
        </mxCell>
        <mxCell id="hWFFJ-Ory_eg45FTC5Lz-33" value="HP" style="text;strokeColor=none;align=center;fillColor=none;html=1;verticalAlign=middle;whiteSpace=wrap;rounded=0;fontSize=17;" vertex="1" parent="hWFFJ-Ory_eg45FTC5Lz-67">
          <mxGeometry x="56" y="110" width="40" height="30" as="geometry" />
        </mxCell>
        <mxCell id="hWFFJ-Ory_eg45FTC5Lz-34" value="" style="shape=mxgraph.cisco.switches.layer_3_switch;sketch=0;html=1;pointerEvents=1;dashed=0;fillColor=#036897;strokeColor=#ffffff;strokeWidth=2;verticalLabelPosition=bottom;verticalAlign=top;align=center;outlineConnect=0;" vertex="1" parent="hWFFJ-Ory_eg45FTC5Lz-67">
          <mxGeometry x="10" width="104" height="104" as="geometry" />
        </mxCell>
        <mxCell id="hWFFJ-Ory_eg45FTC5Lz-70" value="" style="edgeStyle=elbowEdgeStyle;rounded=0;orthogonalLoop=1;jettySize=auto;html=1;endArrow=none;startFill=0;exitX=0;exitY=0.5;exitDx=0;exitDy=0;exitPerimeter=0;strokeWidth=5;" edge="1" parent="1" source="hWFFJ-Ory_eg45FTC5Lz-34">
          <mxGeometry relative="1" as="geometry">
            <mxPoint x="869" y="572.0000000000001" as="sourcePoint" />
            <mxPoint x="469" y="710" as="targetPoint" />
          </mxGeometry>
        </mxCell>
        <mxCell id="hWFFJ-Ory_eg45FTC5Lz-72" style="edgeStyle=none;rounded=0;orthogonalLoop=1;jettySize=auto;html=1;entryX=0.382;entryY=0.967;entryDx=0;entryDy=0;entryPerimeter=0;endArrow=none;startFill=0;strokeColor=light-dark(#002aff, #ededed);strokeWidth=6;" edge="1" parent="1" source="hWFFJ-Ory_eg45FTC5Lz-34" target="hWFFJ-Ory_eg45FTC5Lz-54">
          <mxGeometry relative="1" as="geometry" />
        </mxCell>
        <mxCell id="hWFFJ-Ory_eg45FTC5Lz-15" value="Forti FW" style="text;strokeColor=none;align=center;fillColor=none;html=1;verticalAlign=middle;whiteSpace=wrap;rounded=0;fontSize=17;fontStyle=1" vertex="1" parent="1">
          <mxGeometry x="760" y="170" width="150" height="40" as="geometry" />
        </mxCell>
        <mxCell id="hWFFJ-Ory_eg45FTC5Lz-74" style="edgeStyle=orthogonalEdgeStyle;rounded=0;orthogonalLoop=1;jettySize=auto;html=1;entryX=0.5;entryY=1;entryDx=0;entryDy=0;strokeColor=light-dark(#FF33FF,#EDEDED);strokeWidth=6;endArrow=none;startFill=0;" edge="1" parent="1" source="hWFFJ-Ory_eg45FTC5Lz-34" target="hWFFJ-Ory_eg45FTC5Lz-15">
          <mxGeometry relative="1" as="geometry" />
        </mxCell>
        <mxCell id="hWFFJ-Ory_eg45FTC5Lz-76" style="edgeStyle=none;rounded=0;orthogonalLoop=1;jettySize=auto;html=1;exitX=0.5;exitY=0;exitDx=0;exitDy=0;exitPerimeter=0;endArrow=none;startFill=0;entryX=0.5;entryY=1;entryDx=0;entryDy=0;entryPerimeter=0;dashed=1;dashPattern=1 2;" edge="1" parent="1" source="hWFFJ-Ory_eg45FTC5Lz-35" target="hWFFJ-Ory_eg45FTC5Lz-34">
          <mxGeometry relative="1" as="geometry">
            <mxPoint x="986" y="700" as="sourcePoint" />
            <mxPoint x="1000" y="680" as="targetPoint" />
          </mxGeometry>
        </mxCell>
      </root>
    </mxGraphModel>
  </diagram>
</mxfile>
